<?xml version="1.0" standalone="no"?>
<!DOCTYPE svg PUBLIC "-//W3C//DTD SVG 20010904//EN"
 "http://www.w3.org/TR/2001/REC-SVG-20010904/DTD/svg10.dtd">
<svg version="1.0" xmlns="http://www.w3.org/2000/svg"
 width="16.000000pt" height="16.000000pt" viewBox="0 0 16.000000 16.000000"
 preserveAspectRatio="xMidYMid meet">

<g transform="translate(0.000000,16.000000) scale(0.100000,-0.100000)"
fill="#000000" stroke="none">
<path d="M62 127 c-11 -13 -10 -16 7 -22 18 -5 18 -8 4 -36 -8 -17 -12 -33 -8
-37 4 -4 10 -1 12 6 3 6 10 9 16 5 7 -4 7 -1 -1 9 -9 12 -10 18 -2 23 6 4 9
13 6 21 -3 7 -1 16 4 19 6 4 10 12 10 18 0 7 -6 3 -12 -8 -11 -18 -12 -18 -18
-1 -5 16 -7 16 -18 3z"/>
</g>
</svg>
